<?xml version='1.0' encoding='utf-8'?>
<svg xmlns="http://www.w3.org/2000/svg" width="1797px" height="1602.4px" enable-background="new 0 0 1796.975 1602.438" version="1.1" viewBox="0 0 1796.975 1602.438">
<g fill="#231F20">
		<circle cx="87.627" cy="1514.8" r="87.627"/>
		<circle cx="87.627" cy="1301.3" r="78.015"/>
		<circle cx="87.627" cy="1087.8" r="68.404"/>
		<circle cx="87.627" cy="874.33" r="58.792"/>
		<circle cx="87.627" cy="660.83" r="49.181"/>
		<circle cx="87.627" cy="447.34" r="39.57"/>
		<circle cx="87.627" cy="233.84" r="29.958"/>
		<circle cx="87.627" cy="20.346" r="20.346"/>
		<circle cx="267.82" cy="1514.8" r="87.627"/>
		<circle cx="267.82" cy="1301.3" r="78.016"/>
		<circle cx="267.82" cy="1087.8" r="68.404"/>
		<circle cx="267.82" cy="874.33" r="58.792"/>
		<circle cx="267.82" cy="660.83" r="49.181"/>
		<circle cx="267.82" cy="447.34" r="39.569"/>
		<circle cx="267.82" cy="233.84" r="29.958"/>
		<circle cx="267.82" cy="20.346" r="20.346"/>
		<circle cx="448.01" cy="1514.8" r="87.627"/>
		<circle cx="448.01" cy="1301.3" r="78.015"/>
		<circle cx="448.01" cy="1087.8" r="68.404"/>
		<circle cx="448.01" cy="874.33" r="58.792"/>
		<circle cx="448.01" cy="660.83" r="49.181"/>
		<circle cx="448.01" cy="447.34" r="39.569"/>
		<circle cx="448.01" cy="233.84" r="29.958"/>
		<circle cx="448.01" cy="20.347" r="20.346"/>
		<circle cx="628.2" cy="1514.8" r="87.627"/>
		<circle cx="628.2" cy="1301.3" r="78.016"/>
		<circle cx="628.2" cy="1087.8" r="68.404"/>
		<circle cx="628.2" cy="874.33" r="58.792"/>
		<circle cx="628.2" cy="660.83" r="49.181"/>
		<circle cx="628.2" cy="447.34" r="39.57"/>
		<circle cx="628.2" cy="233.84" r="29.958"/>
		<circle cx="628.2" cy="20.346" r="20.346"/>
		<circle cx="808.39" cy="1514.8" r="87.627"/>
		<circle cx="808.39" cy="1301.3" r="78.016"/>
		<circle cx="808.39" cy="1087.8" r="68.404"/>
		<circle cx="808.39" cy="874.33" r="58.792"/>
		<circle cx="808.39" cy="660.83" r="49.181"/>
		<circle cx="808.39" cy="447.34" r="39.57"/>
		<circle cx="808.39" cy="233.84" r="29.958"/>
		<circle cx="808.39" cy="20.346" r="20.346"/>
		<circle cx="988.58" cy="1514.8" r="87.627"/>
		<circle cx="988.58" cy="1301.3" r="78.016"/>
		<circle cx="988.58" cy="1087.8" r="68.404"/>
		<circle cx="988.58" cy="874.33" r="58.792"/>
		<circle cx="988.58" cy="660.83" r="49.181"/>
		<circle cx="988.58" cy="447.34" r="39.57"/>
		<circle cx="988.58" cy="233.84" r="29.958"/>
		<circle cx="988.58" cy="20.346" r="20.346"/>
		<circle cx="1168.8" cy="1514.8" r="87.627"/>
		<circle cx="1168.8" cy="1301.3" r="78.015"/>
		<circle cx="1168.8" cy="1087.8" r="68.404"/>
		<circle cx="1168.8" cy="874.33" r="58.792"/>
		<circle cx="1168.8" cy="660.83" r="49.181"/>
		<circle cx="1168.8" cy="447.34" r="39.57"/>
		<circle cx="1168.8" cy="233.84" r="29.958"/>
		<circle cx="1168.8" cy="20.346" r="20.346"/>
		<circle cx="1349" cy="1514.8" r="87.627"/>
		<circle cx="1349" cy="1301.3" r="78.016"/>
		<circle cx="1349" cy="1087.8" r="68.404"/>
		<circle cx="1349" cy="874.33" r="58.792"/>
		<circle cx="1349" cy="660.83" r="49.181"/>
		<circle cx="1349" cy="447.34" r="39.57"/>
		<circle cx="1349" cy="233.84" r="29.958"/>
		<circle cx="1349" cy="20.346" r="20.346"/>
		<circle cx="1529.2" cy="1514.8" r="87.627"/>
		<circle cx="1529.2" cy="1301.3" r="78.015"/>
		<circle cx="1529.2" cy="1087.8" r="68.404"/>
		<circle cx="1529.2" cy="874.33" r="58.792"/>
		<circle cx="1529.2" cy="660.83" r="49.181"/>
		<circle cx="1529.2" cy="447.34" r="39.57"/>
		<circle cx="1529.2" cy="233.84" r="29.958"/>
		<circle cx="1529.2" cy="20.346" r="20.346"/>
		<circle cx="1709.3" cy="1514.8" r="87.627"/>
		<circle cx="1709.3" cy="1301.3" r="78.016"/>
		<circle cx="1709.3" cy="1087.8" r="68.404"/>
		<circle cx="1709.3" cy="874.33" r="58.792"/>
		<circle cx="1709.3" cy="660.83" r="49.181"/>
		<circle cx="1709.3" cy="447.34" r="39.57"/>
		<circle cx="1709.3" cy="233.84" r="29.958"/>
		<circle cx="1709.3" cy="20.346" r="20.346"/>
</g>
</svg>